<svg width="160" height="170" viewBox="0 0 160 170" fill="none" xmlns="http://www.w3.org/2000/svg">
  <defs>
    <linearGradient id="bg" x1="12" y1="8" x2="148" y2="162" gradientUnits="userSpaceOnUse">
      <stop stop-color="#0F1F33"/>
      <stop offset="1" stop-color="#1E293B"/>
    </linearGradient>
    <linearGradient id="core" x1="80" y1="48" x2="80" y2="124" gradientUnits="userSpaceOnUse">
      <stop stop-color="#E2E8F0"/>
      <stop offset="1" stop-color="#94A3B8"/>
    </linearGradient>
    <linearGradient id="accent" x1="80" y1="62" x2="80" y2="106" gradientUnits="userSpaceOnUse">
      <stop stop-color="#BAE6FD"/>
      <stop offset="1" stop-color="#38BDF8"/>
    </linearGradient>
  </defs>
  <rect x="5" y="5" width="150" height="160" rx="18" fill="url(#bg)" stroke="#334155"/>
  <rect x="18" y="14" width="124" height="140" rx="14" fill="#0B1627" stroke="#1E3A5F"/>
  <rect x="26" y="68" width="108" height="10" rx="5" fill="#0F243B"/>
  <rect x="36" y="42" width="22" height="52" rx="9" fill="#64748B"/>
  <rect x="102" y="42" width="22" height="52" rx="9" fill="#64748B"/>
  <rect x="56" y="48" width="48" height="62" rx="16" fill="url(#core)" stroke="#CBD5E1"/>
  <circle cx="80" cy="53" r="14" fill="#94A3B8"/>
  <rect x="68" y="49" width="24" height="10" rx="5" fill="url(#accent)"/>
  <rect x="53" y="67" width="54" height="34" rx="8" fill="#60A5FA" fill-opacity="0.24" stroke="#7DD3FC"/>
  <path d="M80 70L93 76V87C93 94 88 99 80 102C72 99 67 94 67 87V76L80 70Z" fill="url(#accent)"/>
  <circle cx="80" cy="136" r="15" fill="#0B1D32" stroke="#38BDF8" stroke-opacity="0.5"/>
</svg>