<svg width="160" height="170" viewBox="0 0 160 170" fill="none" xmlns="http://www.w3.org/2000/svg">
  <defs>
    <linearGradient id="bg" x1="12" y1="8" x2="148" y2="162" gradientUnits="userSpaceOnUse">
      <stop stop-color="#131A34"/>
      <stop offset="1" stop-color="#1F2937"/>
    </linearGradient>
    <linearGradient id="core" x1="80" y1="48" x2="80" y2="124" gradientUnits="userSpaceOnUse">
      <stop stop-color="#E4E4E7"/>
      <stop offset="1" stop-color="#A1A1AA"/>
    </linearGradient>
    <linearGradient id="accent" x1="80" y1="62" x2="80" y2="106" gradientUnits="userSpaceOnUse">
      <stop stop-color="#DDD6FE"/>
      <stop offset="1" stop-color="#A78BFA"/>
    </linearGradient>
  </defs>
  <rect x="5" y="5" width="150" height="160" rx="18" fill="url(#bg)" stroke="#374151"/>
  <rect x="18" y="14" width="124" height="140" rx="14" fill="#0F172A" stroke="#312E81"/>
  <rect x="26" y="68" width="108" height="10" rx="5" fill="#1F1B4A" fill-opacity="0.5"/>
  <rect x="56" y="48" width="48" height="62" rx="16" fill="url(#core)" stroke="#E4E4E7"/>
  <circle cx="80" cy="53" r="14" fill="#A1A1AA"/>
  <rect x="68" y="49" width="24" height="10" rx="5" fill="url(#accent)"/>
  <rect x="38" y="72" width="84" height="8" rx="4" fill="#A78BFA" fill-opacity="0.34"/>
  <rect x="44" y="74" width="58" height="4" rx="2" fill="#C4B5FD"/>
  <circle cx="107" cy="76" r="6" fill="#C4B5FD"/>
  <path d="M72 93H88V103H72V93Z" fill="#A78BFA"/>
  <rect x="76" y="28" width="8" height="14" rx="4" fill="#71717A"/>
  <circle cx="80" cy="136" r="15" fill="#12112E" stroke="#A78BFA" stroke-opacity="0.55"/>
</svg>